<svg width="115" height="115" viewBox="0 0 115 115" fill="none" xmlns="http://www.w3.org/2000/svg">
<g clip-path="url(#clip0_7_55)">
<path d="M35.274 48.0465L57.134 26.2358L79.007 48.0589L91.7278 35.3668L57.134 0.849487L22.5532 35.3555L35.274 48.0465Z" fill="#F3BA2F"/>
<path d="M26.2907 57.0075L13.5708 44.3157L0.850205 57.0082L13.5701 69.6999L26.2907 57.0075Z" fill="#F3BA2F"/>
<path d="M35.274 65.9717L57.134 87.7834L79.0054 65.9604L91.7342 78.6465L91.7278 78.653L57.134 113.168L22.5532 78.6638L22.5343 78.6465L35.274 65.9717Z" fill="#F3BA2F"/>
<path d="M100.699 69.7062L113.42 57.0137L100.7 44.3219L87.9794 57.0144L100.699 69.7062Z" fill="#F3BA2F"/>
<path d="M70.0372 57.0024H70.0421L57.134 44.1234L47.5958 53.6421H47.5941L46.4993 54.734L44.2389 56.9916L44.22 57.0088L44.2389 57.0282L57.134 69.8948L70.0421 57.0153L70.0486 57.0088L70.0372 57.0024Z" fill="#F3BA2F"/>
</g>
<defs>
<clipPath id="clip0_7_55">
<rect width="114.27" height="114.018" fill="white"/>
</clipPath>
</defs>
</svg>
