<svg width="163" height="163" viewBox="0 0 163 163" fill="none" xmlns="http://www.w3.org/2000/svg">
<path d="M80.8276 4.25439C122.886 4.25439 156.981 38.2747 156.981 80.2396C156.981 122.205 122.886 156.225 80.8276 156.225C38.7697 156.225 4.67407 122.205 4.67407 80.2396C4.67407 38.2747 38.7697 4.25439 80.8276 4.25439Z" fill="#0052FF"/>
<path d="M80.8626 106.94C66.0614 106.94 54.1015 94.9737 54.1015 80.2382C54.1015 65.5026 66.0944 53.5362 80.8626 53.5362C94.111 53.5362 105.113 63.1621 107.227 75.7878H134.187C131.907 48.3606 108.912 26.8013 80.8295 26.8013C51.2602 26.8013 27.2743 50.7341 27.2743 80.2382C27.2743 109.742 51.2602 133.675 80.8295 133.675C108.912 133.675 131.907 112.116 134.187 84.6885H107.194C105.08 97.3142 94.111 106.94 80.8626 106.94Z" fill="white"/>
</svg>
