<svg width="99" height="115" viewBox="0 0 99 115" fill="none" xmlns="http://www.w3.org/2000/svg">
<path d="M49.4974 0L0 28.5045V85.5135L49.4974 114.018L98.9949 85.5135V28.5045L49.4974 0ZM49.4974 0L0 28.5045V85.5135L49.4974 114.018L98.9949 85.5135V28.5045L49.4974 0Z" fill="white"/>
<path d="M69.0377 91.748H61.9941L53.5655 84.0267V80.068L62.2957 71.7538V58.5916L73.7045 51.1667L86.6993 60.9631L69.0377 91.748ZM39.8759 70.9648L41.1648 58.5916L36.9002 47.5044H62.0946L57.926 58.5916L59.119 70.9648H49.3969H39.8759ZM45.6305 84.0267L37.1974 91.8438H30.0532L12.2955 60.9631L25.3909 51.2625L36.8957 58.587V71.7492L45.6259 80.0634L45.6305 84.0267ZM29.9572 24.6461H68.9417L73.604 44.4396H25.3955L29.9572 24.6461ZM49.4974 0L0 28.5045V85.5135L49.4974 114.018L98.9949 85.5135V28.5045L49.4974 0Z" fill="#03316C"/>
</svg>
