<svg width="115" height="115" viewBox="0 0 115 115" fill="none" xmlns="http://www.w3.org/2000/svg">
<mask id="mask0_7_105" style="mask-type:alpha" maskUnits="userSpaceOnUse" x="0" y="0" width="115" height="115">
<rect width="114.271" height="114.018" fill="#D9D9D9"/>
</mask>
<g mask="url(#mask0_7_105)">
<path d="M16.158 93.3551C20.171 97.5728 42.2383 117.781 76.8726 94.3265C101.922 74.9984 101.294 33.0958 98.8897 20.4345C98.0519 22.2777 68.989 85.4097 16.158 93.3551ZM98.8897 20.4262C98.5797 20.3017 66.3583 15.9512 34.5055 36.2839C14.7253 48.9037 12.103 67.385 13.0079 79.7308C59.3125 74.5666 97.834 21.8792 98.8897 20.4262Z" fill="#97C554"/>
<path d="M98.5582 20.4269C98.2494 20.3022 66.1522 15.9457 34.4221 36.3063C14.7181 48.9433 12.1059 67.4499 13.0073 79.8126C59.1335 74.6414 97.5066 21.8818 98.5582 20.4269Z" fill="#709B30"/>
</g>
</svg>
