<svg width="450" height="151" viewBox="0 0 450 151" fill="none" xmlns="http://www.w3.org/2000/svg">
<path d="M327.47 120.072V0H345.663V120.072H327.47Z" fill="#F7A600"/>
<path d="M49.7603 150.99H0V34.5663H47.7614C70.9733 34.5663 84.4954 47.3245 84.4954 67.2691C84.4954 80.1837 75.8078 88.5312 69.7956 91.312C76.9751 94.5771 86.1586 101.935 86.1586 117.474C86.1586 139.215 70.9733 150.99 49.7603 150.99ZM45.9227 54.8441H23.2118V81.6626H45.9175C55.7673 81.6626 61.2784 76.2676 61.2784 68.2481C61.2784 60.2443 55.7725 54.8441 45.9227 54.8441ZM47.4205 102.102H23.217V130.722H47.4309C57.9521 130.722 62.9519 124.182 62.9519 116.329C62.9519 108.481 57.9418 102.102 47.4309 102.102H47.4205ZM156.956 103.248V150.99H133.91V103.248L98.1726 34.5663H123.388L145.598 81.4959L167.472 34.5663H192.683L156.956 103.248ZM258.491 150.99H208.731V34.5663H256.487C279.699 34.5663 293.226 47.3245 293.226 67.2691C293.226 80.1837 284.539 88.5312 278.527 91.312C285.706 94.5771 294.89 101.935 294.89 117.474C294.89 139.215 279.704 150.99 258.491 150.99ZM254.654 54.8441H231.943V81.6626H254.654C264.503 81.6626 270.015 76.2676 270.015 68.2481C270.015 60.2443 264.503 54.8441 254.654 54.8441ZM256.152 102.102H231.938V130.722H256.152C266.678 130.722 271.678 124.182 271.678 116.329C271.678 108.481 266.678 102.102 256.152 102.102ZM418.299 54.8493V151H395.087V54.8441H364.034V34.5663H449.361V54.8441L418.299 54.8493Z" fill="white"/>
</svg>
