<svg width="132" height="103" viewBox="0 0 132 103" fill="none" xmlns="http://www.w3.org/2000/svg">
<path d="M61.891 0.139157C73.3363 -0.609657 84.9611 1.67244 95.2224 6.77151C110.363 14.1527 122.419 27.5243 128.123 43.2851C130.635 50.2384 131.998 57.6195 131.998 65.0007V92.4572C131.998 93.5626 132.034 94.7393 131.783 95.809C131.173 98.5903 129.2 101.015 126.545 102.192C124.715 103.048 122.634 103.155 120.696 102.834C116.463 102.049 113.234 98.1268 113.162 93.8835C113.126 85.3613 113.162 76.8747 113.162 68.3169C113.234 65.8921 113.234 63.3248 111.906 61.1853C109.789 57.2629 104.587 55.3731 100.425 57.049C96.9087 58.297 94.3255 61.8271 94.2896 65.5712C94.2537 74.236 94.2896 82.8652 94.2896 91.4944C94.2896 93.099 94.3613 94.7749 93.8949 96.3082C92.9979 99.3391 90.4505 101.8 87.4008 102.655C83.3824 103.761 78.754 102.013 76.709 98.3051C75.3097 96.0586 75.4173 93.3843 75.4532 90.9239C75.4173 82.3304 75.4891 73.7368 75.4173 65.1433C75.3456 60.7931 71.7218 56.8707 67.3446 56.3002C64.5101 55.8723 61.5322 56.7994 59.4871 58.7962C57.6214 60.5434 56.5809 63.0395 56.5809 65.5712V90.603C56.545 92.7068 56.7962 94.8819 56.0069 96.8431C54.7511 100.409 51.1273 103.048 47.2883 102.941C43.3775 103.155 39.5385 100.48 38.2827 96.8074C37.601 94.9889 37.7445 93.0634 37.7445 91.1378C37.7445 82.5087 37.7804 73.8795 37.7445 65.2146C37.7087 60.9357 34.3719 57.049 30.1382 56.2645C26.3351 55.4444 22.1014 57.3699 20.1639 60.7931C19.3387 62.2194 18.9081 63.8596 18.9081 65.4999V93.5982C18.944 96.3439 17.6524 99.0182 15.5714 100.765C12.3782 103.547 7.24752 103.689 3.87491 101.158C1.43515 99.5174 0 96.7005 0 93.7765V65.3929C0.0358788 54.6599 2.76267 43.9269 7.89334 34.5133C12.127 26.8112 17.9035 19.9292 24.8282 14.4379C35.4124 5.98703 48.5082 0.959286 61.891 0.139157Z" fill="#4B4C9B"/>
</svg>
