<svg width="145" height="150" viewBox="0 0 145 150" fill="none" xmlns="http://www.w3.org/2000/svg">
<path fill-rule="evenodd" clip-rule="evenodd" d="M45.7898 74.7918L92.7747 119.093L122.432 91.1343C127.735 86.6328 135.848 86.833 140.894 91.59C145.94 96.347 146.152 103.996 141.377 108.995L102.24 145.898C96.9831 150.772 88.5517 150.772 83.2946 145.898L26.8297 92.6525V124.3C26.8297 131.285 20.8237 136.947 13.4149 136.947C6.00604 136.947 0 131.285 0 124.3V25.2422C0 18.2576 6.00604 12.5955 13.4149 12.5955C20.8237 12.5955 26.8297 18.2576 26.8297 25.2422V56.8899L83.2874 3.65829C88.5428 -1.21943 96.9775 -1.21943 102.233 3.65829L141.399 40.5543C146.174 45.5537 145.962 53.2023 140.916 57.9593C135.87 62.7163 127.757 62.9165 122.454 58.415L92.7965 30.4562L45.7898 74.7918ZM92.7965 62.1314C87.3642 62.1286 82.4651 65.2114 80.3842 69.9421C78.3032 74.6728 79.4504 80.1194 83.2906 83.7417C87.1308 87.364 92.9077 88.4484 97.9268 86.4892C102.946 84.53 106.219 79.9131 106.219 74.7918C106.221 71.4341 104.808 68.2131 102.29 65.8375C99.7733 63.4619 96.3583 62.1263 92.7965 62.1245V62.1314Z" fill="#23AF91"/>
</svg>
