<svg width="368" height="109" viewBox="0 0 368 109" fill="none" xmlns="http://www.w3.org/2000/svg">
<path d="M112.32 0H2.5524C1.87545 0 1.2262 0.254731 0.747717 0.708769C0.268724 1.16232 0 1.77774 0 2.41991V106.469C0 107.111 0.268724 107.726 0.747717 108.179C1.2262 108.634 1.87545 108.888 2.5524 108.888H112.32C112.998 108.888 113.647 108.634 114.125 108.179C114.604 107.726 114.873 107.111 114.873 106.469V2.41991C114.873 1.77774 114.604 1.16232 114.125 0.708769C113.647 0.254731 112.998 0 112.32 0ZM76.5819 70.1726C76.5819 70.8142 76.3132 71.4297 75.8342 71.8837C75.3557 72.3373 74.7065 72.5925 74.0295 72.5925H40.8436C40.1667 72.5925 39.5174 72.3373 39.0384 71.8837C38.5599 71.4297 38.2912 70.8142 38.2912 70.1726V38.7157C38.2912 38.074 38.5599 37.4585 39.0384 37.005C39.5174 36.551 40.1667 36.2962 40.8436 36.2962H74.0295C74.7065 36.2962 75.3557 36.551 75.8342 37.005C76.3132 37.4585 76.5819 38.074 76.5819 38.7157V70.1726Z" fill="white"/>
<path d="M330.452 34.3858H295.607C294.127 34.3858 292.926 35.5828 292.926 37.0599V71.8279C292.926 73.3049 294.127 74.5025 295.607 74.5025H330.452C331.932 74.5025 333.132 73.3049 333.132 71.8279V37.0599C333.132 35.5828 331.932 34.3858 330.452 34.3858Z" fill="white"/>
<path d="M290.629 0H260.762C259.493 0 258.465 1.02607 258.465 2.29254V32.0932C258.465 33.3592 259.493 34.3858 260.762 34.3858H290.629C291.898 34.3858 292.926 33.3592 292.926 32.0932V2.29254C292.926 1.02607 291.898 0 290.629 0Z" fill="white"/>
<path d="M365.297 0H335.43C334.161 0 333.132 1.02607 333.132 2.29254V32.0932C333.132 33.3592 334.161 34.3858 335.43 34.3858H365.297C366.566 34.3858 367.594 33.3592 367.594 32.0932V2.29254C367.594 1.02607 366.566 0 365.297 0Z" fill="white"/>
<path d="M290.629 74.5024H260.762C259.493 74.5024 258.465 75.5284 258.465 76.7945V106.596C258.465 107.862 259.493 108.888 260.762 108.888H290.629C291.898 108.888 292.926 107.862 292.926 106.596V76.7945C292.926 75.5284 291.898 74.5024 290.629 74.5024Z" fill="white"/>
<path d="M365.297 74.5024H335.43C334.161 74.5024 333.132 75.5284 333.132 76.7945V106.596C333.132 107.862 334.161 108.888 335.43 108.888H365.297C366.566 108.888 367.594 107.862 367.594 106.596V76.7945C367.594 75.5284 366.566 74.5024 365.297 74.5024Z" fill="white"/>
<path d="M238.936 0H209.069C207.8 0 206.772 1.02607 206.772 2.29254V32.0932C206.772 33.3592 207.8 34.3858 209.069 34.3858H238.936C240.205 34.3858 241.234 33.3592 241.234 32.0932V2.29254C241.234 1.02607 240.205 0 238.936 0Z" fill="white"/>
<path d="M238.936 74.5024H209.069C207.8 74.5024 206.772 75.5284 206.772 76.7945V106.596C206.772 107.862 207.8 108.888 209.069 108.888H238.936C240.205 108.888 241.234 107.862 241.234 106.596V76.7945C241.234 75.5284 240.205 74.5024 238.936 74.5024Z" fill="white"/>
<path d="M206.772 38.7078C206.772 38.0658 206.509 37.4501 206.043 36.9963C205.576 36.542 204.943 36.2872 204.283 36.2872H169.438V2.42112C169.438 1.77863 169.175 1.1629 168.709 0.709123C168.242 0.254859 167.609 0 166.949 0H134.593C133.933 0 133.3 0.254859 132.833 0.709123C132.366 1.1629 132.104 1.77863 132.104 2.42112V106.468C132.104 107.11 132.366 107.725 132.833 108.179C133.3 108.633 133.933 108.888 134.593 108.888H166.949C167.609 108.888 168.242 108.633 168.709 108.179C169.175 107.725 169.438 107.11 169.438 106.468V72.6016H204.283C204.943 72.6016 205.576 72.3462 206.043 71.8924C206.509 71.4382 206.772 70.8224 206.772 70.1804V38.7078Z" fill="white"/>
</svg>
